<?xml version="1.0" encoding="UTF-8"?><svg id="a" xmlns="http://www.w3.org/2000/svg" viewBox="0 0 249.84 249.84"><defs><style>.b,.c{fill:none;}.d{fill:#181818;}.c{stroke:#f5f5f5;stroke-linecap:round;stroke-linejoin:round;stroke-width:12px;}</style></defs><circle class="d" cx="124.92" cy="124.92" r="124.92"/><rect class="b" x="28.92" y="28.92" width="192" height="192"/><line class="c" x1="118.92" y1="160.92" x2="94.92" y2="160.92"/><line class="c" x1="106.92" y1="190.92" x2="106.92" y2="160.92"/><line class="c" x1="55.92" y1="160.92" x2="55.92" y2="190.92"/><line class="c" x1="76.92" y1="160.92" x2="76.92" y2="190.92"/><line class="c" x1="55.92" y1="175.92" x2="76.92" y2="175.92"/><polyline class="c" points="187.92 160.92 187.92 190.92 205.92 190.92"/><polyline class="c" points="136.92 190.92 136.92 160.92 151.92 181.92 166.92 160.92 166.92 190.92"/><path class="c" d="M64.92,130.92V58.92c0-3.31,2.69-6,6-6h72l42,42v36"/><polyline class="c" points="142.92 52.92 142.92 94.92 184.92 94.92"/></svg>
